<svg width="556" height="479" viewBox="0 0 556 479" fill="none" xmlns="http://www.w3.org/2000/svg">
<path fill-rule="evenodd" clip-rule="evenodd" d="M230.91 474.835C177.352 465.847 124.942 447.387 85.4107 411.249C42.3924 371.923 8.99161 321.465 2.42323 265.96C-4.30502 209.104 8.93606 147.648 49.3555 106.568C87.5304 67.769 153.405 76.5817 206.463 58.5854C258.784 40.8391 301.934 -6.87952 357.601 2.01621C414.516 11.1112 454.647 60.0759 490.055 103.904C524.458 146.487 557.019 194.557 555.718 247.244C554.465 298.009 516.463 338.077 483.31 377.074C453.496 412.145 419.215 442.709 374.985 459.84C329.507 477.455 280.122 483.092 230.91 474.835Z" fill="url(#paint0_linear_581_3834)" fill-opacity="0.5"/>
<defs>
<linearGradient id="paint0_linear_581_3834" x1="543.113" y1="305.785" x2="12.6797" y2="163.656" gradientUnits="userSpaceOnUse">
<stop stop-color="#025E93"/>
<stop offset="0.5" stop-color="#2F80ED"/>
<stop offset="1" stop-color="#2D9EE0"/>
</linearGradient>
</defs>
</svg>
