<svg width="573" height="536" viewBox="0 0 573 536" fill="none" xmlns="http://www.w3.org/2000/svg">
<path fill-rule="evenodd" clip-rule="evenodd" d="M219.014 15.7974C274.802 -0.249034 333.856 -6.63149 388.647 9.97345C448.271 28.0432 503.759 61.2836 535.703 111.772C568.424 163.49 584.013 228.856 563.995 287.117C545.088 342.142 477.504 364.04 434.648 405.873C392.388 447.126 372.799 513.047 315.019 530.155C255.945 547.647 194.656 518.951 140.292 493.029C87.4719 467.843 33.8959 436.517 10.8403 385.115C-11.3749 335.587 6.77967 279.419 20.7522 226.52C33.3179 178.947 52.2696 133.659 87.0125 96.7328C122.736 58.7647 167.753 30.5417 219.014 15.7974Z" fill="url(#paint0_linear_581_3833)" fill-opacity="0.1"/>
<defs>
<linearGradient id="paint0_linear_581_3833" x1="-4.01729" y1="322.852" x2="573.017" y2="215.149" gradientUnits="userSpaceOnUse">
<stop stop-color="#C84E89"/>
<stop offset="1" stop-color="#F15F79"/>
</linearGradient>
</defs>
</svg>
