<svg width="530" height="546" viewBox="0 0 530 546" fill="none" xmlns="http://www.w3.org/2000/svg">
<path fill-rule="evenodd" clip-rule="evenodd" d="M106.123 73.8738C151.353 37.4867 203.334 8.74687 260.282 2.85248C322.254 -3.56189 386.281 5.61352 435.276 39.8047C485.464 74.828 525.136 129.067 529.226 190.535C533.088 248.589 479.246 294.937 455.92 350.097C432.919 404.491 440.369 472.856 393.713 510.993C346.012 549.984 278.394 547.244 218.234 544.382C159.782 541.601 98.2575 533.451 57.1051 494.979C17.4529 457.908 12.4543 399.091 4.86502 344.906C-1.96015 296.178 -2.01266 247.085 15.7315 199.59C33.9762 150.755 64.5627 107.308 106.123 73.8738Z" fill="url(#paint0_linear_581_3835)" fill-opacity="0.2"/>
<defs>
<linearGradient id="paint0_linear_581_3835" x1="19.3083" y1="443.318" x2="509.692" y2="120.683" gradientUnits="userSpaceOnUse">
<stop stop-color="#00F5A0"/>
<stop offset="1" stop-color="#00D9F5"/>
</linearGradient>
</defs>
</svg>
