<svg width="230" height="230" viewBox="0 0 230 230" fill="none" xmlns="http://www.w3.org/2000/svg">
<path d="M204.189 191.47C204.189 194.346 164.258 196.678 115 196.678C65.7425 196.678 25.8113 194.346 25.8113 191.47C25.8113 188.593 65.7425 186.261 115 186.261C164.258 186.261 204.189 188.593 204.189 191.47Z" fill="#F5F5F5"/>
<path d="M20.2011 25.3931C18.8165 25.3931 17.6905 26.5196 17.6905 27.9038V152.762C17.6905 154.147 18.8165 155.273 20.2011 155.273H109.027C110.41 155.273 111.537 154.147 111.537 152.762V27.9038C111.537 26.5196 110.41 25.3931 109.027 25.3931H20.2011ZM109.027 155.388H20.2011C18.7535 155.388 17.5755 154.21 17.5755 152.762V27.9038C17.5755 26.4566 18.7535 25.2781 20.2011 25.2781H109.027C110.474 25.2781 111.652 26.4566 111.652 27.9038V152.762C111.652 154.21 110.474 155.388 109.027 155.388Z" fill="#ECECEC"/>
<path d="M119.698 25.3931C118.314 25.3931 117.188 26.5196 117.188 27.9038V152.762C117.188 154.147 118.314 155.273 119.698 155.273H208.523C209.907 155.273 211.034 154.147 211.034 152.762V27.9038C211.034 26.5196 209.907 25.3931 208.523 25.3931H119.698ZM208.523 155.388H119.698C118.251 155.388 117.073 154.21 117.073 152.762V27.9038C117.073 26.4566 118.251 25.2781 119.698 25.2781H208.523C209.971 25.2781 211.149 26.4566 211.149 27.9038V152.762C211.149 154.21 209.971 155.388 208.523 155.388Z" fill="#ECECEC"/>
<path d="M35.547 180.399H23.5884V180.284H35.547V180.399Z" fill="#ECECEC"/>
<path d="M87.4831 179.151H66.7706V179.036H87.4831V179.151Z" fill="#ECECEC"/>
<path d="M63.972 184.671H36.0077V184.556H63.972V184.671Z" fill="#ECECEC"/>
<path d="M206.412 183.897H197.564V183.782H206.412V183.897Z" fill="#ECECEC"/>
<path d="M193.468 183.897H168.034V183.782H193.468V183.897Z" fill="#ECECEC"/>
<path d="M152.496 181.956H118.241V181.841H152.496V181.956Z" fill="#ECECEC"/>
<path d="M0 176.018H230V175.904H0V176.018Z" fill="#ECECEC"/>
<path d="M123.068 153.387C122.593 159.652 117.13 164.731 110.864 164.731C104.599 164.731 99.9058 159.652 100.381 153.387L102.427 126.385C102.902 120.12 108.366 115.037 114.63 115.037C117.764 115.037 120.505 116.307 122.401 118.363C124.297 120.414 125.352 123.252 125.114 126.385L123.068 153.387ZM87.783 99.1021L81.9622 175.904H138.073L143.894 99.1021H87.783Z" fill="#E7E7E7"/>
<path d="M155.883 175.903H74.0626L74.5341 170.864H156.354L155.883 175.903Z" fill="#E7E7E7"/>
<path d="M187.324 147.387H194.569C194.983 147.387 195.304 147.048 195.284 146.634L195.258 146.12C195.237 145.706 194.882 145.367 194.468 145.367H187.223C186.809 145.367 186.487 145.706 186.508 146.12L186.534 146.634C186.554 147.048 186.91 147.387 187.324 147.387Z" fill="#E1E1E1"/>
<path d="M175.208 147.387H182.453C182.867 147.387 183.189 147.048 183.168 146.634L183.142 146.12C183.122 145.706 182.766 145.367 182.352 145.367H175.107C174.693 145.367 174.371 145.706 174.392 146.12L174.418 146.634C174.439 147.048 174.794 147.387 175.208 147.387Z" fill="#E1E1E1"/>
<path d="M200.204 146.817H31.0966C29.1462 146.817 27.4861 145.236 27.3886 143.286L22.2978 41.7096C22.2002 39.7597 23.7017 38.1782 25.6521 38.1782H194.76C196.71 38.1782 198.37 39.7597 198.468 41.7096L203.558 143.286C203.656 145.236 202.155 146.817 200.204 146.817Z" fill="#E1E1E1"/>
<path d="M202.276 146.817H33.1687C31.2183 146.817 29.5582 145.236 29.4607 143.286L24.3699 41.7096C24.2723 39.7597 25.7742 38.1782 27.7246 38.1782H196.832C198.782 38.1782 200.442 39.7597 200.54 41.7096L205.631 143.286C205.729 145.236 204.227 146.817 202.276 146.817Z" fill="#E7E7E7"/>
<path d="M34.1582 139.729L29.4243 45.2672C29.3631 44.0449 30.3043 43.0546 31.526 43.0546H193.519C194.74 43.0546 195.781 44.0449 195.842 45.2672L200.576 139.729C200.638 140.951 199.697 141.942 198.474 141.942H36.4821C35.2599 141.942 34.2193 140.951 34.1582 139.729Z" fill="#F5F5F5"/>
<path d="M39.4052 47.8872C39.4595 48.9686 38.6269 49.8449 37.5454 49.8449C36.4644 49.8449 35.5439 48.9686 35.4897 47.8872C35.4354 46.8057 36.268 45.9294 37.3494 45.9294C38.4304 45.9294 39.3509 46.8057 39.4052 47.8872Z" fill="white"/>
<path d="M48.2703 47.8872C48.3246 48.9686 47.492 49.8449 46.411 49.8449C45.3295 49.8449 44.4091 48.9686 44.3548 47.8872C44.3005 46.8057 45.1331 45.9294 46.2146 45.9294C47.2956 45.9294 48.216 46.8057 48.2703 47.8872Z" fill="white"/>
<path d="M57.1355 47.8872C57.1898 48.9686 56.3572 49.8449 55.2757 49.8449C54.1947 49.8449 53.2743 48.9686 53.22 47.8872C53.1657 46.8057 53.9983 45.9294 55.0798 45.9294C56.1608 45.9294 57.0812 46.8057 57.1355 47.8872Z" fill="white"/>
<path d="M51.0031 141.941H74.3481L95.6921 43.0543H72.3471L51.0031 141.941Z" fill="white"/>
<path d="M151.471 141.941H157.379L178.724 43.0543H172.815L151.471 141.941Z" fill="white"/>
<path d="M79.5381 141.941H112.659L134.003 43.0543H100.882L79.5381 141.941Z" fill="white"/>
<path d="M137.249 154.328C175.722 137.931 215.95 107.225 198.861 62.0776C183.357 21.1169 130.978 11.8226 101.023 47.1142C88.1024 62.3361 90.3606 82.5549 74.7298 96.1079C59.1041 109.656 33.1467 117.192 40.1709 143.933C51.0476 185.34 111.932 165.118 137.249 154.328Z" fill="#007CFF" fill-opacity="0.3"/>
<path d="M137.249 154.328C175.722 137.931 215.95 107.225 198.861 62.0776C183.357 21.1169 130.978 11.8226 101.023 47.1142C88.1024 62.3361 90.3606 82.5549 74.7298 96.1079C59.1041 109.656 33.1467 117.192 40.1709 143.933C51.0476 185.34 111.932 165.118 137.249 154.328Z" fill="white" fill-opacity="0.3"/>
<path d="M165.877 121.005C165.822 121.005 165.766 121.002 165.71 120.998C153.459 119.995 145.025 109.522 144.671 109.077C143.966 108.188 144.116 106.895 145.005 106.19C145.894 105.485 147.185 105.634 147.89 106.523C147.989 106.645 155.206 115.543 165.198 116.814C168.439 113.597 171.169 105.091 170.87 102.518C170.868 102.494 170.866 102.47 170.864 102.446C170.797 101.618 170.642 98.7826 171.457 97.0898C171.948 96.0667 173.175 95.6375 174.199 96.1288C175.221 96.6206 175.652 97.8483 175.16 98.8713C174.956 99.2941 174.861 100.82 174.957 102.088C175.415 106.321 171.746 117.002 167.136 120.574C166.774 120.854 166.331 121.005 165.877 121.005Z" fill="#1A2E35"/>
<path d="M68.4597 109.858C64.8128 109.858 54.4863 108.963 46.1198 99.6103C45.4694 98.8826 45.4201 97.7975 46.002 97.0141C49.3214 92.5489 55.1836 81.9992 56.0972 78.5616C55.7209 77.9098 55.0369 76.9677 54.1914 76.5708C53.5364 76.263 53.0916 75.6333 53.0203 74.9129L52.6872 71.5443C52.5759 70.415 53.4011 69.409 54.53 69.2972C55.6579 69.1855 56.6653 70.0102 56.7771 71.14L57.0085 73.4819C59.0164 74.9217 60.0164 77.1688 60.1388 77.4576C60.2777 77.7856 60.3297 78.144 60.2883 78.4972C59.8651 82.1487 53.9449 92.7112 50.3021 98.0523C58.8061 106.53 68.9712 105.756 69.4193 105.717C70.5421 105.625 71.5454 106.451 71.647 107.579C71.7482 108.707 70.9216 109.705 69.7942 109.809C69.6989 109.818 69.227 109.858 68.4597 109.858Z" fill="#1A2E35"/>
<path d="M134.718 191.403H129.212C128.57 191.403 127.965 191.103 127.576 190.591C127.188 190.08 127.061 189.416 127.233 188.797C128.672 183.628 129.379 179.421 129.908 172.832C127.959 163.656 126.122 155.255 126.104 155.17C125.862 154.061 126.564 152.966 127.673 152.724C128.783 152.482 129.876 153.184 130.118 154.292C130.137 154.378 132.015 162.969 133.989 172.271C134.031 172.464 134.043 172.662 134.028 172.859C133.562 178.774 132.965 182.865 131.877 187.293H134.718C135.853 187.293 136.773 188.213 136.773 189.348C136.773 190.483 135.853 191.403 134.718 191.403Z" fill="#1A2E35"/>
<path d="M92.1495 191.403H89.0399C88.4456 191.403 87.8802 191.145 87.4902 190.697C87.0996 190.248 86.923 189.653 87.0049 189.064C87.5316 185.291 90.2428 178.422 93.121 171.518C94.1477 162.411 94.9872 154.591 94.9955 154.512C95.1165 153.384 96.1271 152.562 97.2578 152.688C98.3862 152.81 99.2027 153.822 99.0817 154.95C99.073 155.03 98.2146 163.027 97.1713 172.27C97.1497 172.463 97.1009 172.652 97.026 172.831C94.9854 177.72 92.6606 183.478 91.597 187.293H92.1495C93.2843 187.293 94.2043 188.213 94.2043 189.348C94.2043 190.483 93.2843 191.403 92.1495 191.403Z" fill="#1A2E35"/>
<path d="M93.9381 51.051L69.9882 75.0009C68.783 101.55 68.8819 129.433 69.9882 158.347H149.183C147.615 121.038 147.466 85.1255 149.183 51.051H93.9381Z" fill="white"/>
<path d="M70.3833 157.936H148.755C147.125 118.902 147.124 84.0631 148.751 51.4615H94.1083L70.3911 75.1791C69.2554 100.31 69.2531 128.15 70.3833 157.936ZM149.183 158.757H69.9882C69.7674 158.757 69.5861 158.583 69.5779 158.363C68.4292 128.342 68.4292 100.289 69.5779 74.9827C69.5825 74.8801 69.6252 74.783 69.6975 74.7108L93.6478 50.7609C93.7246 50.6836 93.8291 50.6404 93.9381 50.6404H149.183C149.295 50.6404 149.403 50.6868 149.48 50.7678C149.558 50.8497 149.599 50.9592 149.593 51.0719C147.94 83.8901 147.94 118.975 149.593 158.33C149.598 158.441 149.557 158.55 149.479 158.631C149.402 158.712 149.295 158.757 149.183 158.757Z" fill="#1A2E35"/>
<path d="M98.5687 100.825C98.4781 98.8225 97.3391 97.2373 96.0245 97.2851C94.7102 97.3321 93.7185 98.994 93.8091 100.996C93.8997 102.999 95.0387 104.584 96.3534 104.536C97.6676 104.489 98.6593 102.828 98.5687 100.825Z" fill="#007CFF"/>
<path d="M105.501 109.033C112.783 106.434 118.409 109.487 118.669 109.633C118.954 109.792 119.055 110.149 118.896 110.431C118.736 110.713 118.375 110.814 118.09 110.655C118.025 110.62 111.468 107.086 103.643 111.123C103.352 111.27 102.995 111.16 102.843 110.873C102.691 110.585 102.803 110.231 103.094 110.081C103.912 109.659 104.716 109.313 105.501 109.033Z" fill="#007CFF"/>
<path d="M126.339 100.2C126.249 98.1967 125.11 96.6116 123.795 96.6594C122.481 96.7063 121.489 98.3683 121.58 100.371C121.67 102.374 122.809 103.958 124.123 103.911C125.438 103.864 126.43 102.202 126.339 100.2Z" fill="#007CFF"/>
<path d="M94.5955 82.0359C94.7924 82.0409 94.9911 82.0947 95.1733 82.2019C95.7368 82.535 95.9263 83.2567 95.596 83.8147C92.2891 89.4018 86.8376 89.6778 86.6072 89.6875C85.9535 89.7133 85.4006 89.2077 85.3698 88.5587C85.3385 87.911 85.839 87.3659 86.4885 87.3369C86.6679 87.3282 90.916 87.0678 93.5545 82.6095C93.7781 82.2318 94.1829 82.0262 94.5955 82.0359Z" fill="#007CFF"/>
<path d="M122.385 81.3611C122.761 81.2884 123.166 81.3979 123.457 81.6896C127.152 85.3834 131.34 84.6308 131.517 84.5972C132.155 84.4749 132.78 84.8875 132.911 85.5218C133.042 86.1562 132.636 86.7726 131.999 86.9014C131.767 86.9428 126.412 87.9676 121.783 83.3396C121.321 82.8773 121.321 82.1335 121.783 81.6776C121.954 81.5088 122.164 81.4039 122.385 81.3611Z" fill="#007CFF"/>
<path d="M96.1476 77.1385C93.8062 70.7459 91.4656 60.5201 93.9381 51.051L69.9882 75.0009C76.7562 77.2646 87.5475 78.2512 96.1476 77.1385Z" fill="black"/>
<path d="M147.99 94.2347L144.631 94.5502C143.427 94.6629 142.327 93.8625 142.063 92.6826L137.404 71.8074C137.122 70.547 137.889 69.2893 139.138 68.9618L148.149 66.5969L147.99 94.2347Z" fill="black" fill-opacity="0.2"/>
<path d="M93.938 75.0009C91.3123 67.2453 92.3829 56.7026 93.9381 51.051L69.9882 75.0009C77.2392 76.3206 85.3379 76.1132 93.938 75.0009Z" fill="white"/>
<path d="M70.838 74.7319C77.2007 75.7862 84.5939 75.7614 93.3941 74.6565C91.2294 67.7873 91.7183 58.6936 93.1761 52.3939L70.838 74.7319ZM80.9405 76.3254C76.9422 76.3254 73.2866 76.0185 69.9148 75.4049C69.7648 75.3773 69.642 75.2692 69.5965 75.1234C69.5509 74.9776 69.5898 74.8184 69.6975 74.7108L93.6478 50.7609C93.7798 50.6289 93.9839 50.6026 94.1449 50.696C94.3059 50.7898 94.384 50.9803 94.3344 51.1597C92.8867 56.4216 91.6898 67.078 94.327 74.8695C94.3666 74.9858 94.3518 75.1137 94.287 75.2186C94.2217 75.3226 94.1131 75.3925 93.9912 75.4081C89.2638 76.0195 84.9315 76.3254 80.9405 76.3254Z" fill="#1A2E35"/>
<path d="M176.228 109.993C175.923 109.993 175.644 109.788 175.564 109.48L167.129 77.3353C167.032 76.9682 167.252 76.5928 167.619 76.4967C167.987 76.3992 168.361 76.6195 168.457 76.9866L176.892 109.131C176.989 109.498 176.77 109.873 176.403 109.97C176.344 109.985 176.285 109.993 176.228 109.993Z" fill="#1A2E35"/>
<path d="M191.848 65.4816L191.205 63.0294L191.649 62.9125L192.293 65.3648L191.848 65.4816Z" fill="#007CFF"/>
<path d="M190.489 60.3031L188.717 53.5507C188.307 51.9858 186.891 50.8929 185.274 50.8929C184.969 50.8929 184.665 50.9324 184.369 51.0102L179.737 52.2255L179.62 51.7811L184.252 50.5653C184.586 50.4775 184.93 50.4329 185.274 50.4329C187.1 50.4329 188.699 51.667 189.162 53.4339L190.934 60.1862L190.489 60.3031Z" fill="#007CFF"/>
<path d="M191.436 77.9408L147.58 89.4491C146.292 89.7868 144.973 89.0167 144.635 87.7287L139.084 66.5747C138.747 65.2867 139.517 63.9688 140.805 63.6307L184.661 52.1224C185.949 51.7848 187.267 52.5544 187.605 53.8428L193.156 74.9968C193.494 76.2844 192.724 77.6027 191.436 77.9408Z" fill="#007CFF"/>
<path d="M185.437 88.0455L157.767 95.3066C156.479 95.6447 155.16 94.8747 154.823 93.5862L153.088 86.9765C152.75 85.6885 153.52 84.3701 154.808 84.032L182.478 76.7714C183.766 76.4333 185.085 77.2038 185.423 78.4913L187.157 85.1015C187.495 86.3895 186.725 87.7079 185.437 88.0455Z" fill="#007CFF"/>
<path d="M145 71.9747L151.393 70.3128L151.821 71.9599L147.819 73.001L148.139 74.2278L151.851 73.2628L152.26 74.8377L148.548 75.8026L148.944 77.3246L153.061 76.254L153.516 78.0021L147.008 79.6958L145 71.9747Z" fill="white"/>
<path d="M156.033 72.4448L157.039 72.183C157.147 72.155 157.349 72.0649 157.643 71.9142C157.793 71.8404 157.902 71.7262 157.968 71.57C158.034 71.4146 158.046 71.2522 158.001 71.0837C157.937 70.835 157.808 70.6641 157.615 70.5709C157.423 70.48 157.109 70.4893 156.674 70.6027L155.625 70.8747L156.033 72.4448ZM154.831 77.6596L152.824 69.94L156.799 68.9051C157.537 68.714 158.116 68.6309 158.54 68.6557C158.962 68.6798 159.337 68.8337 159.665 69.1134C159.993 69.3938 160.219 69.7792 160.348 70.271C160.46 70.6991 160.464 71.0922 160.362 71.4504C160.261 71.8093 160.075 72.1263 159.805 72.4021C159.634 72.5785 159.381 72.7525 159.047 72.9258C159.356 72.9467 159.587 72.9871 159.742 73.0477C159.846 73.0889 160.008 73.1915 160.229 73.3554C160.449 73.5193 160.602 73.6499 160.688 73.7478L162.424 75.6846L159.729 76.3854L157.841 74.3584C157.6 74.095 157.405 73.9334 157.255 73.8759C157.051 73.8006 156.841 73.7913 156.624 73.8488L156.412 73.9031L157.228 77.0357L154.831 77.6596Z" fill="white"/>
<path d="M164.422 70.2636L165.428 70.001C165.536 69.9731 165.738 69.8837 166.033 69.7322C166.182 69.6592 166.291 69.5442 166.357 69.3888C166.423 69.2326 166.434 69.0703 166.39 68.9017C166.325 68.6531 166.197 68.4821 166.004 68.3897C165.811 68.298 165.497 68.3081 165.062 68.4215L164.014 68.6935L164.422 70.2636ZM163.22 75.4776L161.213 67.7588L165.188 66.7239C165.925 66.532 166.505 66.4489 166.928 66.4738C167.351 66.4994 167.726 66.6525 168.053 66.9321C168.381 67.2118 168.608 67.598 168.737 68.0898C168.848 68.5171 168.853 68.911 168.751 69.2692C168.649 69.6281 168.464 69.9451 168.193 70.2201C168.022 70.3965 167.77 70.5705 167.436 70.7446C167.744 70.7655 167.976 70.8052 168.131 70.8665C168.235 70.9077 168.398 71.0103 168.617 71.1734C168.838 71.3381 168.991 71.4687 169.077 71.5665L170.813 73.5034L168.118 74.2035L166.23 72.1764C165.989 71.9131 165.793 71.7522 165.643 71.694C165.441 71.6186 165.23 71.6093 165.012 71.6668L164.801 71.7219L165.617 74.8545L163.22 75.4776Z" fill="white"/>
<path d="M172.479 68.9663C172.681 69.7463 172.972 70.2684 173.35 70.5326C173.728 70.7975 174.167 70.8659 174.665 70.7361C175.178 70.6033 175.532 70.3329 175.725 69.9273C175.919 69.5202 175.904 68.8847 175.679 68.0215C175.49 67.2951 175.206 66.8017 174.826 66.543C174.445 66.2843 174.003 66.219 173.502 66.3496C173.021 66.4754 172.68 66.7458 172.477 67.1622C172.273 67.5779 172.274 68.18 172.479 68.9663ZM170.091 69.5762C169.763 68.316 169.858 67.2423 170.378 66.3581C170.898 65.474 171.784 64.8687 173.038 64.5416C174.323 64.2076 175.402 64.2954 176.277 64.805C177.151 65.3131 177.75 66.1895 178.073 67.4311C178.308 68.3339 178.348 69.1139 178.195 69.7696C178.041 70.4269 177.719 70.9902 177.228 71.4602C176.738 71.9303 176.065 72.2783 175.208 72.5005C174.337 72.7274 173.581 72.7756 172.938 72.6466C172.296 72.5169 171.719 72.1999 171.208 71.6918C170.698 71.1836 170.325 70.479 170.091 69.5762Z" fill="white"/>
<path d="M181.61 65.7926L182.615 65.5316C182.724 65.5036 182.925 65.4135 183.22 65.262C183.369 65.1889 183.477 65.0739 183.544 64.9178C183.609 64.7632 183.621 64.6008 183.577 64.4322C183.512 64.1828 183.383 64.0119 183.191 63.9194C182.999 63.8278 182.684 63.8379 182.249 63.9521L181.202 64.2232L181.61 65.7926ZM180.408 71.0082L178.4 63.2878L182.376 62.2545C183.112 62.0626 183.692 61.9794 184.115 62.0043C184.539 62.0292 184.913 62.1822 185.241 62.4619C185.569 62.7416 185.796 63.1277 185.924 63.6195C186.035 64.0476 186.04 64.4408 185.939 64.7989C185.836 65.1579 185.65 65.4748 185.382 65.7507C185.209 65.927 184.957 66.1003 184.622 66.2743C184.932 66.2953 185.163 66.3357 185.318 66.3963C185.422 66.4375 185.584 66.5392 185.804 66.704C186.025 66.8687 186.179 66.9984 186.264 67.0963L188 69.0332L185.306 69.734L183.417 67.707C183.176 67.4428 182.98 67.282 182.831 67.2245C182.627 67.1491 182.417 67.1398 182.199 67.1973L181.989 67.2509L182.804 70.3843L180.408 71.0082Z" fill="white"/>
</svg>
