<svg width="18" height="18" viewBox="0 0 18 18" fill="none" xmlns="http://www.w3.org/2000/svg">
<path d="M12.297 5.81774C12.3668 5.8874 12.4221 5.97012 12.4598 6.06116C12.4976 6.15221 12.517 6.24981 12.517 6.34837C12.517 6.44693 12.4976 6.54453 12.4598 6.63557C12.4221 6.72662 12.3668 6.80934 12.297 6.87899L10.0605 9.11474L12.0675 11.121C12.2083 11.2617 12.2873 11.4526 12.2873 11.6516C12.2873 11.8506 12.2083 12.0415 12.0675 12.1822C11.9268 12.323 11.7359 12.402 11.5369 12.402C11.3379 12.402 11.147 12.323 11.0063 12.1822L9.00002 10.1752L6.99377 12.1822C6.85304 12.323 6.66217 12.402 6.46314 12.402C6.26412 12.402 6.07325 12.323 5.93252 12.1822C5.79179 12.0415 5.71273 11.8506 5.71273 11.6516C5.71273 11.4526 5.79179 11.2617 5.93252 11.121L7.93952 9.11474L5.70302 6.87899C5.63334 6.80926 5.57807 6.72649 5.54038 6.6354C5.50268 6.54431 5.4833 6.44669 5.48334 6.3481C5.48337 6.24952 5.50282 6.15191 5.54058 6.06085C5.57834 5.96979 5.63366 5.88705 5.70339 5.81737C5.77313 5.74769 5.8559 5.69242 5.94699 5.65473C6.03808 5.61703 6.1357 5.59765 6.23428 5.59769C6.33287 5.59772 6.43047 5.61717 6.52154 5.65493C6.6126 5.69269 6.69534 5.74801 6.76502 5.81774L9.00002 8.05499L11.2358 5.81849C11.3054 5.74876 11.3881 5.69344 11.4792 5.6557C11.5702 5.61796 11.6678 5.59853 11.7664 5.59853C11.865 5.59853 11.9626 5.61796 12.0536 5.6557C12.1446 5.69344 12.2274 5.74876 12.297 5.81849V5.81774Z" fill="black"/>
<path fill-rule="evenodd" clip-rule="evenodd" d="M3 0.75C2.40326 0.75 1.83097 0.987053 1.40901 1.40901C0.987053 1.83097 0.75 2.40326 0.75 3V15C0.75 15.5967 0.987053 16.169 1.40901 16.591C1.83097 17.0129 2.40326 17.25 3 17.25H15C15.5967 17.25 16.169 17.0129 16.591 16.591C17.0129 16.169 17.25 15.5967 17.25 15V3C17.25 2.40326 17.0129 1.83097 16.591 1.40901C16.169 0.987053 15.5967 0.75 15 0.75H3ZM15 2.25H3C2.80109 2.25 2.61032 2.32902 2.46967 2.46967C2.32902 2.61032 2.25 2.80109 2.25 3V15C2.25 15.1989 2.32902 15.3897 2.46967 15.5303C2.61032 15.671 2.80109 15.75 3 15.75H15C15.1989 15.75 15.3897 15.671 15.5303 15.5303C15.671 15.3897 15.75 15.1989 15.75 15V3C15.75 2.80109 15.671 2.61032 15.5303 2.46967C15.3897 2.32902 15.1989 2.25 15 2.25Z" fill="black"/>
</svg>
