<svg width="24" height="24" viewBox="0 0 24 24" fill="none" xmlns="http://www.w3.org/2000/svg">
<path d="M14.819 11.795C15.3332 11.0265 15.5432 10.0942 15.408 9.17941C15.2727 8.26466 14.802 7.43294 14.0874 6.84609C13.3728 6.25923 12.4655 5.95923 11.5419 6.00445C10.6183 6.04966 9.74458 6.43687 9.09072 7.09072C8.43687 7.74458 8.04966 8.6183 8.00445 9.54188C7.95923 10.4655 8.25923 11.3728 8.84609 12.0874C9.43294 12.802 10.2647 13.2727 11.1794 13.408C12.0942 13.5432 13.0265 13.3332 13.795 12.819L16.271 15.294L16.338 15.352L16.346 15.358C16.4929 15.4646 16.6746 15.5121 16.8549 15.4911C17.0352 15.4701 17.201 15.3821 17.3195 15.2446C17.438 15.1071 17.5006 14.9301 17.4947 14.7487C17.4889 14.5672 17.4151 14.3946 17.288 14.265L14.818 11.795H14.819ZM11.724 7.447C12.3278 7.447 12.9068 7.68685 13.3337 8.11377C13.7607 8.5407 14.0005 9.11974 14.0005 9.7235C14.0005 10.3273 13.7607 10.9063 13.3337 11.3332C12.9068 11.7602 12.3278 12 11.724 12C11.1202 12 10.5412 11.7602 10.1143 11.3332C9.68734 10.9063 9.4475 10.3273 9.4475 9.7235C9.4475 9.11974 9.68734 8.5407 10.1143 8.11377C10.5412 7.68685 11.1202 7.447 11.724 7.447ZM6.5 2C5.83696 2 5.20107 2.26339 4.73223 2.73223C4.26339 3.20107 4 3.83696 4 4.5V19.5C4 20.163 4.26339 20.7989 4.73223 21.2678C5.20107 21.7366 5.83696 22 6.5 22H19.75C19.9489 22 20.1397 21.921 20.2803 21.7803C20.421 21.6397 20.5 21.4489 20.5 21.25C20.5 21.0511 20.421 20.8603 20.2803 20.7197C20.1397 20.579 19.9489 20.5 19.75 20.5H6.5C6.23478 20.5 5.98043 20.3946 5.79289 20.2071C5.60536 20.0196 5.5 19.7652 5.5 19.5H19.75C19.9489 19.5 20.1397 19.421 20.2803 19.2803C20.421 19.1397 20.5 18.9489 20.5 18.75V4.5C20.5 4.1717 20.4353 3.84661 20.3097 3.54329C20.1841 3.23998 19.9999 2.96438 19.7678 2.73223C19.5356 2.50009 19.26 2.31594 18.9567 2.1903C18.6534 2.06466 18.3283 2 18 2H6.5ZM19 18H5.5V4.5C5.5 4.23478 5.60536 3.98043 5.79289 3.79289C5.98043 3.60536 6.23478 3.5 6.5 3.5H18C18.2652 3.5 18.5196 3.60536 18.7071 3.79289C18.8946 3.98043 19 4.23478 19 4.5V18Z" fill="#012235"/>
</svg>
