<svg width="1440" height="500" viewBox="0 0 1440 500" fill="none" xmlns="http://www.w3.org/2000/svg">
  <g id="header-bg">
    <rect id="bg" width="1440" height="500" fill="url(#paint0_linear_906_2987)" />
    <g id="dot">
      <circle id="dot_16" cx="346" cy="121" r="5" fill="#0CA4FB" fill-opacity="0.2" />
      <circle id="dot_15" cx="1175" cy="195" r="5" fill="#0CA4FB" fill-opacity="0.2" />
      <circle id="dot_14" cx="1042" cy="379" r="5" fill="#0CA4FB" fill-opacity="0.2" />
      <circle id="dot_13" cx="958" cy="257" r="5" fill="#0CA4FB" fill-opacity="0.2" />
      <circle id="dot_12" cx="874" cy="135" r="5" fill="#0CA4FB" fill-opacity="0.2" />
      <circle id="dot_11" cx="790" cy="13" r="5" fill="#0CA4FB" fill-opacity="0.2" />
      <circle id="dot_10" cx="704" cy="185" r="5" fill="#0CA4FB" fill-opacity="0.2" />
      <circle id="dot_9" cx="618" cy="357" r="5" fill="#0CA4FB" fill-opacity="0.2" />
      <circle id="dot_8" cx="434" cy="457" r="5" fill="#0CA4FB" fill-opacity="0.2" />
      <circle id="dot_7" cx="208" cy="276" r="5" fill="#0CA4FB" fill-opacity="0.2" />
      <circle id="dot_6" cx="62" cy="80" r="5" fill="#0CA4FB" fill-opacity="0.2" />
      <circle id="dot_5" cx="67" cy="384" r="5" fill="#0CA4FB" fill-opacity="0.2" />
      <circle id="dot_4" cx="1334" cy="70" r="5" fill="#0CA4FB" fill-opacity="0.2" />
      <circle id="dot_3" cx="725" cy="314" r="5" fill="#0CA4FB" fill-opacity="0.2" />
      <circle id="dot_2" cx="390" cy="376" r="5" fill="#0CA4FB" fill-opacity="0.2" />
      <circle id="dot_1" cx="400" cy="185" r="5" fill="#0CA4FB" fill-opacity="0.2" />
    </g>
    <!-- <g id="mask">
      <mask id="mask0_906_2987" style="mask-type:alpha" maskUnits="userSpaceOnUse" x="0" y="0" width="1440"
        height="500">
        <rect id="bg_2" width="1440" height="500" fill="black" />
      </mask>
      <g mask="url(#mask0_906_2987)"> -->
    <g id="ellipse">
      <path id="ellipse_3"
        d="M268 500C268 379.061 316.043 263.076 401.559 177.559C487.076 92.0427 603.061 44 724 44C844.939 44 960.924 92.0427 1046.44 177.559C1131.96 263.076 1180 379.061 1180 500L724 500L268 500Z"
        fill="#0CA4FB" fill-opacity="0.05" />
      <path id="ellipse_2"
        d="M325 500C325 393.913 367.143 292.172 442.157 217.157C517.172 142.143 618.913 100 725 100C831.087 100 932.828 142.143 1007.84 217.157C1082.86 292.172 1125 393.913 1125 500L725 500L325 500Z"
        fill="#0CA4FB" fill-opacity="0.05" />
      <path id="ellipse_1"
        d="M392 500C392 411.683 427.084 326.983 489.533 264.533C551.983 202.084 636.683 167 725 167C813.317 167 898.017 202.084 960.466 264.533C1022.92 326.983 1058 411.683 1058 500L725 500L392 500Z"
        fill="#0CA4FB" fill-opacity="0.1" />
      <path id="ellipse_0"
        d="M487 500C487 436.879 512.075 376.342 556.709 331.709C601.342 287.075 661.878 262 725 262C788.121 262 848.658 287.075 893.291 331.709C937.925 376.342 963 436.878 963 500L725 500L487 500Z"
        fill="#0CA4FB" fill-opacity="0.1" />
      <!-- </g> -->
      <!-- </g> -->
    </g>
  </g>
  <defs>
    <linearGradient id="paint0_linear_906_2987" x1="703" y1="1.05687e-07" x2="705" y2="500"
      gradientUnits="userSpaceOnUse">
      <stop offset="0.135417" stop-color="#E3F3FC" />
      <stop offset="1" stop-color="#0CA4FB" />
    </linearGradient>
  </defs>
</svg>