<svg width="1122" height="1122" viewBox="0 0 1122 1122" fill="none" xmlns="http://www.w3.org/2000/svg">
<g id="wifi">
<path id="range-3" fill-rule="evenodd" clip-rule="evenodd" d="M647.207 282.735C619.811 278.584 591.927 276.47 563.74 276.47C409.9 276.47 271.05 330.88 172.79 429.65C171.058 431.396 170.061 433.741 170.005 436.2C169.949 438.66 170.839 441.047 172.49 442.87L262.25 542C263.13 542.968 264.197 543.747 265.386 544.29C266.576 544.833 267.863 545.129 269.17 545.16H269.37C271.93 545.153 274.385 544.145 276.21 542.35C326.914 491.068 390.456 454.34 460.2 436C502.331 424.854 545.814 420.63 588.971 423.329L647.207 282.735ZM648.368 431.494C654.402 432.785 660.414 434.215 666.399 435.785C733.998 453.518 795.852 488.454 845.94 537.19C847.744 538.954 850.171 539.936 852.695 539.923C855.218 539.91 857.634 538.903 859.42 537.12L949.2 447.33C950.095 446.43 950.803 445.362 951.284 444.187C951.765 443.013 952.009 441.755 952.002 440.485C951.996 439.216 951.739 437.961 951.246 436.791C950.753 435.622 950.034 434.561 949.13 433.67C880.008 366.087 796.156 318.756 705.028 294.706L648.368 431.494Z" fill="#0EA4FB"/>
<path id="range-2" fill-rule="evenodd" clip-rule="evenodd" d="M564.526 482.347C563.457 482.329 562.389 482.317 561.32 482.31C536.839 482.415 512.465 485.563 488.76 491.68C428.46 506.96 370.11 540.58 321.85 589.1C320.083 590.892 319.086 593.303 319.071 595.819C319.056 598.335 320.025 600.758 321.77 602.57L397.55 680.57C398.438 681.485 399.499 682.213 400.672 682.713C401.845 683.212 403.105 683.473 404.38 683.48C406.946 683.406 409.397 682.396 411.27 680.64C442.216 649.446 471.448 626.653 509.164 616.002L564.526 482.347ZM574.531 609.752C630.395 613.678 670.45 641.805 712.41 682.57C714.214 684.303 716.618 685.274 719.12 685.28H719.46C720.755 685.24 722.029 684.937 723.203 684.388C724.378 683.84 725.428 683.058 726.29 682.09L800.49 598.96C802.139 597.118 803.012 594.71 802.928 592.24C802.844 589.769 801.81 587.426 800.04 585.7C752.75 539.42 693.65 506.58 633.33 491.57C630.353 490.811 627.366 490.098 624.37 489.431L574.531 609.752Z" fill="#0EA4FB"/>
<path id="range-1" fill-rule="evenodd" clip-rule="evenodd" d="M490.522 812.567C499.999 823.904 512.106 832.826 525.847 838.518C542.632 845.47 561.102 847.289 578.921 843.745C596.74 840.201 613.108 831.452 625.955 818.605C638.802 805.758 647.55 789.39 651.095 771.571C654.639 753.752 652.82 735.282 645.867 718.497C638.915 701.712 627.141 687.365 612.035 677.271C596.928 667.178 579.168 661.79 561 661.79C558.258 661.794 555.529 661.921 552.82 662.167L532.234 711.866C532.429 711.732 532.625 711.599 532.822 711.467C541.163 705.894 550.969 702.92 561 702.92C574.449 702.933 587.344 708.283 596.853 717.794C606.363 727.305 611.709 740.201 611.72 753.65C611.718 763.681 608.742 773.486 603.167 781.826C597.593 790.165 589.671 796.665 580.403 800.502C571.135 804.339 560.937 805.342 551.099 803.384C541.261 801.426 532.224 796.595 525.132 789.501C518.04 782.407 513.21 773.37 511.254 763.531C511.208 763.3 511.164 763.069 511.121 762.838L490.522 812.567Z" fill="#0EA4FB"/>
<path id="range-0" fill-rule="evenodd" clip-rule="evenodd" d="M511.121 762.838C512.367 769.594 514.979 776.06 518.833 781.826C524.407 790.165 532.329 796.665 541.597 800.502C550.865 804.339 561.063 805.342 570.901 803.384C580.739 801.426 589.776 796.595 596.868 789.501C603.96 782.407 608.79 773.37 610.746 763.531C612.703 753.693 611.698 743.495 607.858 734.228C604.019 724.961 597.518 717.04 589.178 711.467C580.837 705.894 571.031 702.92 561 702.92C550.645 702.934 540.62 706.11 532.215 711.912L511.121 762.838Z" fill="#6CCDFE"/>
<rect id="strike" x="708.146" y="167" width="34" height="800" rx="17" transform="rotate(22.5 708.146 167)" fill="#6DCEFE"/>
</g>
</svg>
